<svg width="119" height="119" viewBox="0 0 119 119" fill="none" xmlns="http://www.w3.org/2000/svg">
<path d="M52.5829 20.4078L42.5769 91.6039C41.8147 97.0274 45.5934 102.042 51.0169 102.804L95.2076 109.015C100.631 109.777 105.646 105.998 106.408 100.575L116.414 29.3786C117.176 23.9551 113.397 18.9406 107.974 18.1783L63.7832 11.9677C58.3596 11.2055 53.3451 14.9842 52.5829 20.4078Z" fill="#F3F3F3"/>
<path d="M55.3127 14.875C53.8388 16.371 52.883 18.2999 52.5856 20.3788L42.5871 91.5755C42.2214 94.178 42.9038 96.8192 44.4843 98.919C46.0648 101.019 48.4142 102.405 51.0163 102.774L78.6317 106.654C78.6664 106.636 78.7086 106.624 78.7433 106.604H86.7708C89.4009 106.604 91.9232 105.559 93.7829 103.7C95.6427 101.84 96.6875 99.3176 96.6875 96.6875V24.7917C96.6849 22.8704 96.1243 20.9912 95.0737 19.3825C94.0231 17.7739 92.5279 16.5051 90.7697 15.7303L84.6883 14.875H55.3127Z" fill="#E7E7E7"/>
<path d="M81.8125 9.91669H37.1875C31.7107 9.91669 27.2708 14.3565 27.2708 19.8334V91.7292C27.2708 97.206 31.7107 101.646 37.1875 101.646H81.8125C87.2893 101.646 91.7291 97.206 91.7291 91.7292V19.8334C91.7291 14.3565 87.2893 9.91669 81.8125 9.91669Z" fill="#F3F3F3"/>
<path d="M83.8504 96.5339L73.8444 25.3371C73.4758 22.735 72.0893 20.3857 69.9896 18.8052C67.8898 17.2247 65.2486 16.5423 62.646 16.908L27.2708 21.8688V91.7292C27.2708 94.3593 28.3156 96.8816 30.1753 98.7414C32.0351 100.601 34.5574 101.646 37.1875 101.646H81.8125C82.2873 101.633 82.7605 101.585 83.2281 101.502C83.8639 99.9283 84.0784 98.2159 83.8504 96.5339Z" fill="#E7E7E7"/>
<path d="M55.1984 11.9477L11.0077 18.1583C5.5842 18.9205 1.80547 23.9351 2.56769 29.3586L12.5737 100.555C13.3359 105.978 18.3504 109.757 23.774 108.995L67.9647 102.784C73.3882 102.022 77.1669 97.0074 76.4047 91.5839L66.3987 20.3877C65.6365 14.9642 60.622 11.1855 55.1984 11.9477Z" fill="white"/>
<path d="M4.0931 22.6249C2.79286 24.6096 2.25399 26.9976 2.57585 29.3484L12.5818 100.545C12.7628 101.835 13.1962 103.076 13.8571 104.199C14.518 105.321 15.3935 106.302 16.4337 107.086C17.4738 107.87 18.6581 108.441 19.9191 108.767C21.18 109.093 22.4929 109.168 23.7826 108.987L67.9738 102.774C69.3814 102.574 70.729 102.072 71.9239 101.301C73.1188 100.531 74.1326 99.511 74.8956 98.3113L4.0931 22.6249Z" fill="#F3F3F3"/>
<path d="M27.6129 64.4583L37.5717 71.9603C38.6216 72.7512 39.9426 73.0928 41.2443 72.9101C42.5459 72.7274 43.7218 72.0353 44.5134 70.986L52.0179 61.0272C53.4082 59.1814 54.0086 56.859 53.6869 54.5707C53.3652 52.2824 52.1477 50.2155 50.3023 48.8247C49.3885 48.1359 48.3479 47.6339 47.2401 47.3474C46.1322 47.0608 44.9788 46.9954 43.8456 47.1547C42.7125 47.314 41.6218 47.695 40.6359 48.2759C39.65 48.8568 38.7883 49.6263 38.0998 50.5403C36.254 49.1495 33.9314 48.5487 31.6427 48.8699C29.3539 49.1912 27.2865 50.4082 25.8949 52.2534C25.2062 53.1675 24.7043 54.2084 24.4179 55.3165C24.1315 56.4247 24.0662 57.5784 24.2258 58.7117C24.3853 59.8451 24.7665 60.936 25.3477 61.922C25.9289 62.908 26.6986 63.7698 27.6129 64.4583Z" fill="#E74C3C"/>
<path d="M46.6802 68.1151L44.506 70.9984C44.1158 71.5173 43.6271 71.9542 43.0679 72.2841C42.5087 72.614 41.89 72.8304 41.2471 72.9209C40.6042 73.0114 39.9497 72.9742 39.3212 72.8115C38.6927 72.6488 38.1024 72.3638 37.5841 71.9727L27.6154 64.4584C26.6984 63.7696 25.9268 62.9061 25.3452 61.9176C24.7635 60.9292 24.3833 59.8354 24.2264 58.6993C23.9628 56.834 24.3163 54.9337 25.2329 53.288C26.1496 51.6422 27.5791 50.3413 29.3037 49.5834L46.6802 68.1151Z" fill="#C0392B"/>
<path d="M21.1448 36.7537C20.6883 36.8184 20.2229 36.7545 19.8007 36.5693C19.3785 36.384 19.0164 36.0847 18.7549 35.705L16.8583 32.9407L15.7898 36.1239C15.6861 36.4332 15.5225 36.7191 15.3084 36.9651C15.0942 37.2112 14.8337 37.4127 14.5417 37.5581C14.2496 37.7034 13.9318 37.7899 13.6064 37.8124C13.281 37.835 12.9543 37.7932 12.645 37.6895C12.3357 37.5858 12.0499 37.4222 11.8038 37.2081C11.5577 36.9939 11.3563 36.7334 11.2109 36.4414C11.0655 36.1494 10.9791 35.8316 10.9565 35.5061C10.9339 35.1807 10.9757 34.854 11.0794 34.5447L13.7272 26.6634C13.8997 26.2509 14.1767 25.8903 14.5308 25.6171C14.8849 25.3439 15.3039 25.1675 15.7468 25.1053C16.1896 25.043 16.6411 25.097 17.0568 25.2619C17.4725 25.4269 17.8381 25.6971 18.1178 26.0461L22.8282 32.8936C23.0675 33.2413 23.2141 33.6445 23.254 34.0647C23.2939 34.485 23.2259 34.9085 23.0563 35.2951C22.8867 35.6817 22.6212 36.0186 22.285 36.2738C21.9487 36.5291 21.5529 36.6942 21.1349 36.7537H21.1448Z" fill="#E74C3C"/>
<path d="M16.0204 35.3976L15.7725 36.1413C15.6868 36.4715 15.5339 36.7803 15.3233 37.0487C15.1128 37.317 14.8492 37.539 14.5489 37.7008C14.2487 37.8626 13.9183 37.9607 13.5784 37.989C13.2385 38.0173 12.8964 37.9751 12.5736 37.8652C12.2507 37.7552 11.954 37.5798 11.7021 37.35C11.4501 37.1201 11.2483 36.8407 11.1092 36.5293C10.9701 36.2179 10.8968 35.8811 10.8938 35.5401C10.8908 35.199 10.9582 34.861 11.0918 34.5472L12.1851 31.2896L16.0204 35.3976Z" fill="#C0392B"/>
<path d="M63.2559 95.9264C62.8001 95.9909 62.3353 95.9272 61.9136 95.7424C61.4919 95.5576 61.1301 95.2591 60.8685 94.8802L56.1581 88.0327C55.7849 87.4909 55.6423 86.8231 55.7616 86.1762C55.8808 85.5292 56.2522 84.9561 56.794 84.583C57.3358 84.2098 58.0036 84.0672 58.6506 84.1865C59.2975 84.3057 59.8706 84.6771 60.2437 85.2189L62.1477 87.9832L63.2163 84.7999C63.4257 84.1753 63.8747 83.6594 64.4644 83.3658C65.0542 83.0722 65.7364 83.0249 66.3611 83.2343C66.9857 83.4437 67.5016 83.8927 67.7952 84.4825C68.0888 85.0722 68.1361 85.7545 67.9267 86.3791L65.2789 94.2629C65.1307 94.7014 64.8626 95.0896 64.505 95.3836C64.1475 95.6776 63.7148 95.8656 63.2559 95.9264Z" fill="#E74C3C"/>
<path d="M66.8036 89.6467L65.2516 94.2703C65.1023 94.7016 64.8368 95.0834 64.4844 95.3734C64.1319 95.6635 63.7062 95.8506 63.2543 95.9142C62.8023 95.9778 62.3415 95.9154 61.9227 95.7338C61.5039 95.5522 61.1434 95.2585 60.8809 94.8851L56.1704 88.0377C55.9571 87.7727 55.8006 87.4666 55.7107 87.1385C55.6208 86.8104 55.5994 86.4673 55.6478 86.1305C55.6962 85.7938 55.8133 85.4706 55.992 85.1811C56.1707 84.8916 56.4071 84.642 56.6864 84.4478C56.9657 84.2535 57.282 84.1189 57.6156 84.0522C57.9492 83.9855 58.2929 83.9881 58.6254 84.06C58.958 84.1318 59.2721 84.2714 59.5484 84.4699C59.8247 84.6684 60.0571 84.9217 60.2313 85.2139L62.1452 87.9732L62.9708 85.5313L66.8036 89.6467Z" fill="#C0392B"/>
</svg>
